<?xml version="1.0" standalone="no"?>
<!DOCTYPE svg PUBLIC "-//W3C//DTD SVG 1.0//EN" "http://www.w3.org/TR/2001/REC-SVG-20010904/DTD/svg10.dtd">
<svg xmlns="http://www.w3.org/2000/svg" xmlns:xlink="http://www.w3.org/1999/xlink" id="body_1" width="667" height="667">

<defs>
    <clipPath  id="1">

    <path id=""  clip-rule="evenodd" transform="matrix(1 0 0 1 0 0)"  d="M0 500L0 0L0 0L500 0L500 0L500 500L500 500L0 500z" />    </clipPath>
</defs>

<g transform="matrix(1.3333 0 0 1.3333 0 0)">
	<g clip-path="url(#1)" >
    <path id=""  transform="matrix(1 0 0 -1 0 500)"  d="M62.5 250L62.5 250L62.5 250L90.33203 472.65625L90.33203 472.65625L90.33203 472.65625C 92.28516 488.28125 105.56641 500 121.38672 500L121.38672 500L121.38672 500L121.38672 500L286.03516 500L286.03516 500L286.03516 500C 300.6836 500 312.5 488.1836 312.5 473.53516L312.5 473.53516L312.5 473.53516C 312.5 470.41016 311.91406 467.1875 310.83984 464.2578L310.83984 464.2578L265.625 343.75L265.625 343.75L265.625 343.75L265.625 343.75L401.66013 343.75L401.66013 343.75L401.66013 343.75C 421.3867 343.75 437.49997 327.73438 437.49997 307.91016L437.49997 307.91016L437.49997 307.91016C 437.49997 300.6836 435.35153 293.65234 431.25 287.6953L431.25 287.6953L243.55467 13.28125C 237.79295 4.8828125 228.32031 -0.09765625 218.2617 -0.09765625L218.2617 -0.09765625L218.2617 -0.09765625L218.2617 -0.09765625L215.42967 -0.09765625L215.42967 -0.09765625L215.42967 -0.09765625C 200.09764 -0.09765625 187.59763 12.402374 187.59763 27.734375L187.59763 27.734375L187.59763 27.734375C 187.59763 29.9805 187.8906 32.226593 188.47655 34.472656L188.47655 34.472656L234.375 218.75L234.375 218.75L234.375 218.75L234.375 218.75L93.75 218.75L93.75 218.75L93.75 218.75C 76.46484 218.75 62.5 232.71484 62.5 250z" stroke="#FFFFFF" stroke-width="1.3020834" fill="#000000" fill-rule="nonzero" />
	</g>
</g>
</svg>